<svg width="16" height="16" viewBox="0 0 16 16" fill="none" xmlns="http://www.w3.org/2000/svg">
<path fill-rule="evenodd" clip-rule="evenodd" d="M4.81086 10.6686C4.70419 10.6686 4.59686 10.6346 4.50619 10.5652C4.28752 10.3966 4.24619 10.0826 4.41486 9.86391L6.41019 7.27058C6.49152 7.16458 6.61219 7.09591 6.74419 7.07925C6.87886 7.06191 7.01086 7.09925 7.11553 7.18258L8.99552 8.65925L10.6402 6.53725C10.8095 6.31791 11.1229 6.27725 11.3415 6.44791C11.5602 6.61725 11.6002 6.93125 11.4309 7.14925L9.47752 9.66925C9.39619 9.77458 9.27619 9.84325 9.14419 9.85925C9.01086 9.87725 8.87886 9.83858 8.77353 9.75658L6.89486 8.28058L5.20752 10.4732C5.10886 10.6012 4.96086 10.6686 4.81086 10.6686Z" fill="#60626E"/>
<mask id="mask0_235_117" style="mask-type:luminance" maskUnits="userSpaceOnUse" x="11" y="1" width="5" height="4">
<path fill-rule="evenodd" clip-rule="evenodd" d="M11.5302 1.33337H15.0928V4.89664H11.5302V1.33337Z" fill="white"/>
</mask>
<g mask="url(#mask0_235_117)">
<path fill-rule="evenodd" clip-rule="evenodd" d="M13.3115 2.33325C12.8808 2.33325 12.5302 2.68325 12.5302 3.11459C12.5302 3.54525 12.8808 3.89659 13.3115 3.89659C13.7422 3.89659 14.0928 3.54525 14.0928 3.11459C14.0928 2.68325 13.7422 2.33325 13.3115 2.33325ZM13.3115 4.89658C12.3295 4.89658 11.5302 4.09725 11.5302 3.11459C11.5302 2.13192 12.3295 1.33325 13.3115 1.33325C14.2942 1.33325 15.0928 2.13192 15.0928 3.11459C15.0928 4.09725 14.2942 4.89658 13.3115 4.89658Z" fill="#60626E"/>
</g>
<mask id="mask1_235_117" style="mask-type:luminance" maskUnits="userSpaceOnUse" x="1" y="1" width="14" height="15">
<path fill-rule="evenodd" clip-rule="evenodd" d="M1.33331 1.89465H14.5746V15.1353H1.33331V1.89465Z" fill="white"/>
</mask>
<g mask="url(#mask1_235_117)">
<path fill-rule="evenodd" clip-rule="evenodd" d="M10.8219 15.1353H5.08592C2.84125 15.1353 1.33325 13.5587 1.33325 11.212V5.82399C1.33325 3.47399 2.84125 1.89465 5.08592 1.89465H9.93125C10.2073 1.89465 10.4313 2.11865 10.4313 2.39465C10.4313 2.67065 10.2073 2.89465 9.93125 2.89465H5.08592C3.41392 2.89465 2.33325 4.04399 2.33325 5.82399V11.212C2.33325 13.0153 3.38792 14.1353 5.08592 14.1353H10.8219C12.4939 14.1353 13.5746 12.988 13.5746 11.212V6.51932C13.5746 6.24332 13.7986 6.01932 14.0746 6.01932C14.3506 6.01932 14.5746 6.24332 14.5746 6.51932V11.212C14.5746 13.5587 13.0666 15.1353 10.8219 15.1353Z" fill="#60626E"/>
</g>
</svg>
